<?xml version="1.0" encoding="UTF-8"?>
<svg xmlns="http://www.w3.org/2000/svg" xmlns:xlink="http://www.w3.org/1999/xlink" width="175px" height="67px" viewBox="0 0 167 64" version="1.1">
<g id="surface1">
<path style=" stroke:none;fill-rule:nonzero;fill:rgb(0%,0%,0%);fill-opacity:1;" d="M 6.5 21.398438 L 6.5 35.800781 C 6.5 38.101562 6.550781 41.898438 3.351562 41.898438 C 2.5 41.898438 1.699219 41.601562 1.101562 41.148438 L -0.351562 43.550781 C 0.800781 44.199219 1.898438 44.5 3.199219 44.5 C 8.5 44.5 9.351562 40.148438 9.351562 35.800781 L 9.351562 21.398438 Z M 19 42.101562 C 16.148438 42.101562 14.550781 39.648438 14.550781 37 C 14.550781 34.398438 16.199219 32 19 32 C 21.898438 32 23.550781 34.300781 23.550781 37 C 23.550781 39.800781 21.949219 42.101562 19 42.101562 Z M 26.101562 30 L 23.398438 30 L 23.398438 32.351562 L 23.351562 32.351562 C 22.25 30.648438 20.550781 29.601562 18.5 29.601562 C 14.398438 29.601562 11.851562 33.101562 11.851562 36.949219 C 11.851562 40.949219 14.300781 44.5 18.550781 44.5 C 20.601562 44.5 22.25 43.449219 23.351562 41.851562 L 23.398438 41.851562 L 23.398438 44.050781 L 26.101562 44.050781 Z M 30.398438 30 L 27.351562 30 L 34.398438 44.5 L 41.5 30 L 38.449219 30 L 34.398438 38.75 Z M 49.050781 42.101562 C 46.199219 42.101562 44.601562 39.648438 44.601562 37 C 44.601562 34.398438 46.25 32 49.050781 32 C 51.949219 32 53.601562 34.300781 53.601562 37 C 53.601562 39.800781 52 42.101562 49.050781 42.101562 Z M 56.148438 30 L 53.449219 30 L 53.449219 32.351562 L 53.398438 32.351562 C 52.300781 30.648438 50.601562 29.601562 48.550781 29.601562 C 44.449219 29.601562 41.898438 33.101562 41.898438 36.949219 C 41.898438 40.949219 44.351562 44.5 48.601562 44.5 C 50.648438 44.5 52.300781 43.449219 53.398438 41.851562 L 53.449219 41.851562 L 53.449219 44.050781 L 56.148438 44.050781 Z M 60.398438 30 L 57.300781 30 L 64.449219 44.5 L 68.601562 35.101562 L 72.699219 44.5 L 79.851562 30 L 76.800781 30 L 72.699219 38.949219 L 68.601562 29.199219 L 64.449219 38.949219 Z M 87.449219 29.550781 C 83.25 29.550781 79.949219 32.800781 79.949219 37.050781 C 79.949219 41.25 83.25 44.5 87.449219 44.5 C 91.648438 44.5 94.949219 41.25 94.949219 37.050781 C 94.949219 32.800781 91.648438 29.550781 87.449219 29.550781 Z M 87.449219 32.148438 C 90.148438 32.148438 92.25 34.351562 92.25 37.050781 C 92.25 39.648438 90.148438 41.898438 87.449219 41.898438 C 84.800781 41.898438 82.648438 39.648438 82.648438 37.050781 C 82.648438 34.351562 84.800781 32.148438 87.449219 32.148438 Z M 107.75 30.5 C 106.648438 29.851562 105.300781 29.550781 104.050781 29.550781 C 99.699219 29.550781 96.351562 32.75 96.351562 37.101562 C 96.351562 41.300781 99.75 44.5 103.898438 44.5 C 105.300781 44.5 106.5 44.25 107.75 43.550781 L 107.75 40.101562 C 106.75 41.25 105.449219 42 103.898438 42 C 101.050781 42 99.050781 39.898438 99.050781 37 C 99.050781 34.398438 101.101562 32.101562 103.75 32.101562 C 105.351562 32.101562 106.648438 32.75 107.75 33.949219 Z M 113.550781 18 L 110.851562 18 L 110.851562 44.050781 L 113.550781 44.050781 L 113.550781 38.601562 L 114.449219 37.648438 L 119.5 44.050781 L 123 44.050781 L 116.398438 35.851562 L 122.398438 30 L 118.800781 30 L 113.550781 35.300781 Z M 136.851562 37.449219 L 136.851562 37.050781 C 136.851562 32.851562 134.75 29.550781 130.300781 29.550781 C 125.75 29.550781 123.449219 32.800781 123.449219 37.148438 C 123.449219 41.25 126.050781 44.5 130.351562 44.5 C 133.050781 44.5 135.550781 43.101562 136.851562 40.648438 L 134.550781 39.398438 C 133.550781 41.050781 132.449219 42.101562 130.351562 42.101562 C 127.800781 42.101562 126.148438 39.851562 126.148438 37.449219 Z M 126.300781 35.398438 C 126.601562 33.398438 128.148438 31.898438 130.25 31.898438 C 132.449219 31.898438 133.800781 33.300781 134.148438 35.398438 Z M 151.5 37.449219 L 151.5 37.050781 C 151.5 32.851562 149.398438 29.550781 144.898438 29.550781 C 140.398438 29.550781 138.101562 32.800781 138.101562 37.148438 C 138.101562 41.25 140.699219 44.5 145 44.5 C 147.699219 44.5 150.148438 43.101562 151.5 40.648438 L 149.199219 39.398438 C 148.199219 41.050781 147.101562 42.101562 145 42.101562 C 142.449219 42.101562 140.800781 39.851562 140.800781 37.449219 Z M 140.898438 35.398438 C 141.25 33.398438 142.800781 31.898438 144.898438 31.898438 C 147.050781 31.898438 148.449219 33.300781 148.800781 35.398438 Z M 157.199219 41.5 L 166.699219 30 L 153.550781 30 L 153.550781 32.5 L 161.449219 32.5 L 151.949219 44.050781 L 166.300781 44.050781 L 166.300781 41.5 Z M 157.199219 41.5 "/>
</g>
</svg>
